<svg id="Layer_1" enable-background="new 0 0 507.93 507.93" height="512" viewBox="0 0 507.93 507.93" width="512" xmlns="http://www.w3.org/2000/svg"><g id="XMLID_676_"><g id="XMLID_1116_"><path id="XMLID_1115_" d="m361.124 66.54 40.731-37.122c22.746-20.73 57.511-20.812 80.354-.19 18.383 16.596 24.634 42.806 15.72 65.912l-36.442 94.463z" fill="#ffe6b4"/><g id="XMLID_1108_"><path id="XMLID_1114_" d="m392.04 93.731 37.38-34.068c7.213-6.575 18.119-6.602 25.367-.06 5.763 5.203 7.757 13.566 4.962 20.809l-24.714 64.061z" fill="#ffa96b"/></g><path id="XMLID_1107_" d="m150.755 66.54-40.731-37.122c-22.745-20.73-57.511-20.812-80.354-.19-18.383 16.596-24.634 42.806-15.72 65.912l36.442 94.463z" fill="#ffe6b4"/><g id="XMLID_1103_"><path id="XMLID_1104_" d="m119.839 93.731-37.38-34.068c-7.213-6.575-18.119-6.602-25.367-.06-5.763 5.203-7.757 13.566-4.962 20.809l24.714 64.061z" fill="#ffa96b"/></g><path id="XMLID_1306_" d="m315.5 450.276c-7.847 25.44-31.545 43.926-59.56 43.926-27.964 0-51.627-18.419-59.517-43.787l59.517-21.503z" fill="#fff3da"/><path id="XMLID_1856_" d="m439.159 149.223-52.706-60.763c-21.083-24.305-51.674-38.267-83.849-38.267h-46.664-46.664c-32.175 0-62.767 13.961-83.849 38.267l-52.707 60.763c-17.509 20.186-27.149 46.01-27.149 72.732v64.041c0 20.307 6.319 40.11 18.08 56.664 9.614 13.532 22.513 24.395 37.482 31.567l43.283 20.737c4.681 15.808 13.873 30.109 26.711 40.999l13.093 11.106c3.808 3.23 9.002 4.289 13.77 2.809l57.949-17.996 57.949 17.996c4.768 1.48 9.962.421 13.77-2.809l13.093-11.106c12.838-10.89 22.03-25.191 26.711-40.999l43.283-20.737c14.97-7.172 27.869-18.036 37.482-31.567 11.761-16.554 18.08-36.357 18.08-56.664v-64.041c.001-26.722-9.638-52.547-27.148-72.732z" fill="#ffcd69"/><g fill="#6d92ac"><path id="XMLID_1287_" d="m144.013 128.744h-53.487l34.943-40.284c7.819-9.014 16.947-16.601 26.977-22.584 13.58 3.702 23.567 16.116 23.567 30.869 0 17.672-14.327 31.999-32 31.999z"/><path id="XMLID_1087_" d="m58.395 179.091h-4.202c-5.64 13.472-8.622 28.027-8.622 42.864v21.136h12.825c17.673 0 32-14.327 32-32-.001-17.673-14.328-32-32.001-32z"/><path id="XMLID_1085_" d="m82.623 350.136c17.673 0 32-14.327 32-32 0-17.673-14.327-32-32-32h-15.03c-8.342 0-15.936 3.194-21.632 8.424 1.518 17.27 7.59 33.884 17.69 48.101 1.842 2.593 3.807 5.086 5.882 7.476h13.09z"/><path id="XMLID_1084_" d="m410.746 374.227c13.285-6.365 24.933-15.643 34.108-27.107-5.649-9.071-15.706-15.112-27.178-15.112h-15.03c-17.673 0-32 14.327-32 32v29.431z"/><path id="XMLID_1635_" d="m461.97 286.136c1.472 0 2.919-.108 4.338-.301v-63.398c-1.42-.192-2.866-.301-4.338-.301h-15.03c-17.673 0-32 14.327-32 32 0 17.673 14.327 32 32 32z"/><path id="XMLID_1634_" d="m367.909 128.744h53.487l-34.943-40.284c-7.819-9.014-16.947-16.601-26.977-22.584-13.58 3.702-23.567 16.116-23.567 30.869 0 17.672 14.327 31.999 32 31.999z"/></g><path id="XMLID_1865_" d="m243.444 388.814c-29.321-17.696-63.61-27.866-100.252-27.866l-2.282 8.578c-.005.376-.024.751-.024 1.128 0 25.154 11.059 49.037 30.241 65.309l13.093 11.106c3.808 3.23 9.002 4.289 13.77 2.809l57.949-17.996 57.949 17.996c4.768 1.48 9.962.421 13.77-2.809l13.093-11.106c14.073-11.938 23.766-27.974 27.936-45.601v-29.415c-36.642 0-70.931 10.17-100.252 27.866h-24.991z" fill="#ffe6b4"/><path id="XMLID_1853_" d="m216.322 363.887c7.694 10.245 17.508 19.089 28.875 26.02 6.586 4.016 14.898 4.016 21.484 0 11.368-6.931 21.181-15.776 28.875-26.02 9.354-12.456 1.847-30.35-13.533-32.825-17.27-2.779-34.899-2.779-52.169 0-15.378 2.474-22.886 20.369-13.532 32.825z" fill="#c68a65"/></g><g id="XMLID_303_"><path id="XMLID_308_" d="m255.961 80.048c-5.523 0-10 4.478-10 10v82.864c0 5.522 4.477 10 10 10 5.522 0 10-4.478 10-10v-82.864c0-5.523-4.478-10-10-10z"/><path id="XMLID_328_" d="m149.44 243.318c2.63 0 5.21-1.06 7.07-2.93 1.86-1.86 2.93-4.44 2.93-7.07s-1.07-5.21-2.93-7.069c-1.86-1.86-4.44-2.931-7.07-2.931s-5.21 1.07-7.07 2.931c-1.86 1.859-2.93 4.439-2.93 7.069 0 2.641 1.07 5.21 2.93 7.07 1.86 1.871 4.439 2.93 7.07 2.93z"/><path id="XMLID_329_" d="m362.44 223.318c-2.63 0-5.21 1.07-7.07 2.931-1.86 1.859-2.93 4.439-2.93 7.069 0 2.641 1.069 5.21 2.93 7.07 1.86 1.87 4.44 2.93 7.07 2.93s5.21-1.06 7.069-2.93c1.86-1.86 2.931-4.43 2.931-7.07 0-2.63-1.07-5.21-2.931-7.069-1.86-1.86-4.44-2.931-7.069-2.931z"/><path id="XMLID_332_" d="m485.332 127.793c-5.151-1.986-10.941.578-12.93 5.73l-11.397 29.543c-4.025-7.225-8.802-14.066-14.292-20.396l-.182-.21 22.547-58.448c4.275-11.079 1.226-23.871-7.59-31.832-11.087-10.009-27.768-9.967-38.805.093l-30.397 27.705c-4.741-5.236-9.894-10.008-15.388-14.284l31.693-28.885c19.032-17.348 47.801-17.416 66.917-.157 5.4 4.875 9.582 10.731 12.43 17.407 2.167 5.08 8.041 7.442 13.122 5.274 5.08-2.167 7.441-8.042 5.274-13.122-3.994-9.361-9.856-17.572-17.424-24.405-26.792-24.189-67.113-24.092-93.792.222l-35.562 32.411c-17.331-9.247-36.848-14.245-56.953-14.245h-93.328c-20.105 0-39.621 4.999-56.953 14.246l-35.562-32.412c-26.679-24.315-67-24.409-93.792-.222-21.306 19.235-28.68 50.152-18.348 76.933l35.232 91.325c-2.819 10.317-4.281 21.036-4.281 31.89v21.127.006.01 42.899c0 22.51 6.891 44.106 19.928 62.456 10.569 14.876 24.855 26.907 41.313 34.794l39.389 18.872c5.544 15.932 15.269 30.285 28.458 41.472l13.093 11.106c3.394 2.879 7.405 4.733 11.62 5.478 11.24 26.604 37.149 44.028 66.568 44.028 29.44 0 55.333-17.419 66.57-44.028 4.214-.746 8.225-2.599 11.619-5.478l13.093-11.106c13.186-11.186 22.904-25.538 28.448-41.468l39.399-18.876c16.457-7.886 30.743-19.917 41.313-34.794 13.037-18.351 19.928-39.947 19.928-62.456v-64.042c0-10.854-1.462-21.573-4.281-31.89l19.035-49.342c1.986-5.153-.58-10.941-5.732-12.929zm-49.176-60.739c3.393-3.094 8.522-3.104 11.929-.029 2.668 2.409 3.629 6.435 2.334 9.788l-18.726 48.541-26.272-30.288zm-77.844 9.892c7.574 5.009 14.513 11.063 20.588 18.066l20.585 23.731h-31.575c-12.131 0-22-9.869-22-22-.001-8.483 4.952-16.168 12.402-19.797zm-204.725-.012c7.464 3.624 12.426 11.317 12.426 19.811 0 12.131-9.869 22-22 22h-31.618l20.585-23.731c6.08-7.01 13.025-13.069 20.607-18.08zm-102.714 86.133-27.594-71.527c-7.371-19.106-2.11-41.165 13.092-54.889 19.116-17.258 47.884-17.189 66.917.157l31.693 28.885c-5.495 4.276-10.647 9.047-15.388 14.284l-30.398-27.705c-11.038-10.06-27.719-10.101-38.806-.092-8.814 7.96-11.864 20.752-7.59 31.831l22.549 58.447-.183.211c-5.49 6.331-10.266 13.172-14.292 20.398zm55.585-68.002-26.272 30.288-18.727-48.541c-1.293-3.354-.333-7.379 2.333-9.787 3.408-3.076 8.537-3.063 11.93.028zm-26.063 116.026c0 12.131-9.869 22-22 22h-2.824v-11.137c0-11.216 1.889-22.252 5.465-32.699 10.89 1.309 19.359 10.599 19.359 21.836zm-6.14 129.045c-.84-1.071-1.663-2.156-2.453-3.268-8.053-11.335-13.22-24.193-15.25-37.742 3.329-1.936 7.118-2.99 11.04-2.99h15.03c12.131 0 22 9.869 22 22s-9.869 22-22 22zm120.77 100.192c-1.509.469-3.13.14-4.336-.884l-13.093-11.106c-16.855-14.296-26.567-35.126-26.704-57.21 30.871 1.288 61.792 10.819 88.242 26.783 1.904 1.161 4.757 2.626 6.806 3.337v23.27zm27.984-92.665c1.451-3.597 4.604-6.112 8.434-6.729 16.254-2.615 32.737-2.615 48.991 0 3.83.616 6.983 3.132 8.436 6.729.669 1.657 1.88 5.972-1.31 10.219-6.971 9.28-15.747 17.184-26.084 23.487-3.415 2.082-7.659 2.082-11.073 0-10.339-6.304-19.115-14.207-26.085-23.487-3.189-4.247-1.978-8.562-1.309-10.219zm32.931 136.539c-19.65 0-37.136-10.741-46.105-27.53l46.105-14.318 46.108 14.319c-8.967 16.792-26.445 27.529-46.108 27.529zm104.706-106.353c-1.857 19.549-11.23 37.653-26.362 50.489l-13.093 11.106c-1.204 1.023-2.825 1.353-4.336.885l-50.915-15.812v-23.27c2.049-.711 4.901-2.176 6.806-3.337 26.353-15.905 57.148-25.426 87.9-26.766zm45.78-12.64-25.699 12.313c.164-2.277.266-4.565.266-6.867 0-2.574-.112-5.142-.321-7.699.552-11.644 10.196-20.947 21.973-20.947h15.03c5.203 0 10.095 1.8 13.97 4.995-7.241 7.492-15.79 13.687-25.219 18.205zm37.402-34.074c-7.312-5.838-16.446-9.126-26.152-9.126h-15.03c-11.288 0-21.543 4.484-29.097 11.755-3.38-8.092-7.85-15.738-13.353-22.655l-15.958-20.059c-7.964-10.012-12.351-22.57-12.351-35.364v-29.526c0-13.102 10.659-23.761 23.761-23.761h28.292c5.522 0 10-4.478 10-10s-4.478-10-10-10h-28.292c-24.13 0-43.761 19.631-43.761 43.761v29.526c0 17.298 5.931 34.279 16.7 47.815l15.958 20.059c6.504 8.175 11.2 17.63 13.869 27.647-17.006.854-33.778 3.825-49.934 8.805 1.853-6.421 1.55-13.356-1.064-19.834-4.097-10.152-12.995-17.251-23.805-18.99-18.362-2.955-36.983-2.953-55.345 0-10.809 1.739-19.708 8.838-23.804 18.99-2.615 6.479-2.917 13.417-1.062 19.84-16.16-4.982-32.935-7.958-49.946-8.812 2.672-10.017 7.375-19.471 13.879-27.646l15.958-20.059c10.769-13.537 16.7-30.518 16.7-47.815v-29.526c0-24.13-19.631-43.761-43.761-43.761h-28.29c-5.523 0-10 4.478-10 10s4.477 10 10 10h28.292c13.102 0 23.761 10.659 23.761 23.761v29.526c0 12.793-4.387 25.353-12.352 35.364l-15.958 20.059c-13.411 16.857-20.797 38.004-20.797 59.545 0 2.299.091 4.586.253 6.86l-25.685-12.306c-4.005-1.919-7.847-4.145-11.503-6.638 17.671-4.958 30.671-21.202 30.671-40.435 0-23.159-18.841-42-42-42h-15.03c-4.115 0-8.157.605-12.021 1.758v-24.803h2.824c23.159 0 42-18.841 42-42 0-19.28-13.063-35.557-30.8-40.472 3.086-5.229 6.652-10.202 10.679-14.844l14.773-17.031h48.966c23.159 0 42-18.841 42-42 0-11.495-4.767-22.22-12.621-29.957 11.334-4.308 23.474-6.594 35.884-6.594h93.328c12.421 0 24.571 2.29 35.915 6.605-7.847 7.736-12.609 18.457-12.609 29.945 0 23.159 18.841 42 42 42h48.923l14.773 17.031c13.773 15.877 22.182 35.599 24.211 56.36h-8.877c-23.159 0-42 18.841-42 42s18.841 42 42 42h8.779c-1.425 12.396-5.447 24.271-11.891 35.002zm12.481-54.999h-9.369c-12.131 0-22-9.869-22-22s9.869-22 22-22h9.369z"/><path id="XMLID_701_" d="m504.999 88.068c-1.859-1.859-4.439-2.93-7.069-2.93-2.631 0-5.21 1.07-7.07 2.93s-2.93 4.44-2.93 7.07 1.069 5.21 2.93 7.07c1.86 1.859 4.439 2.93 7.07 2.93 2.63 0 5.21-1.07 7.069-2.93 1.86-1.86 2.931-4.44 2.931-7.07s-1.071-5.209-2.931-7.07z"/></g></g></svg>