<svg id="Capa_1" enable-background="new 0 0 512 512" height="512" viewBox="0 0 512 512" width="512" xmlns="http://www.w3.org/2000/svg"><g><g><path d="m399.435 55.72-64.32 64.31c-16.129-12.067-35.42-19.135-55.25-22.19l-.3-.07h-48.48l-.3.07c-19.451 2.996-38.49 9.884-54.48 21.62l-63.74-63.74c-31.24 31.24-17.1 67.75 14.14 98.99 4.73 4.73 9.59 9.07 14.52 12.92h.01c-3.84 11.47-5.91 24.27-5.91 38.37 0 49.65 25.69 137.04 63.45 182.54h113.1c37.76-45.5 63.45-132.89 63.45-182.54 0-13.76-1.97-26.28-5.63-37.54 5.31-4.05 10.52-8.67 15.59-13.75 31.25-31.24 45.39-67.75 14.15-98.99z" fill="#f3eff0"/><g fill="#c1b0b5"><path d="m359.235 146.05c-14.07 20.24-36.4 35.98-63.15 44.03-18.12 5.46-32.11 19.96-38.09 37.9l-2.67 8.02-2.67-8.02c-5.98-17.94-19.97-32.44-38.09-37.9-26.75-8.05-49.08-23.79-63.15-44.03 10.411-16.532 25.979-29.977 46.29-38.81 7.27 33.9 30.31 48.76 57.62 48.76s50.35-14.86 57.62-48.76c19.03 8.264 35.183 21.19 46.29 38.81z"/><circle cx="315.325" cy="256" r="20"/><path d="m295.325 30c-1.944 8.36-18.103 77.844-20 86h-40c-1.898-8.162-18.061-77.662-20-86 0 0 11.84-20 40-20s40 20 40 20z"/><path d="m315.325 412c0-30.839-17-56.531-40-66.01v-49.99c0-11.05-8.95-20-20-20s-20 8.95-20 20v49.99c-23.015 9.485-40 35.195-40 66.01 0 10.27 1.9 18.61 5.3 25.32-3.41 7.52-5.3 15.88-5.3 24.68 0 33.14 26.86 40 60 40s60-6.86 60-40c0-8.8-1.89-17.16-5.3-24.68 3.4-6.71 5.3-15.05 5.3-25.32z"/><circle cx="195.325" cy="256" r="20"/></g></g><g><circle cx="275.325" cy="402" r="10"/><circle cx="235.325" cy="402" r="10"/><path d="m119.634 161.781c3.338 3.338 6.729 6.456 10.13 9.364-2.932 10.892-4.438 22.575-4.438 34.855 0 26.212 6.586 61.188 18.069 95.962 11.802 35.738 27.47 67.047 44.415 88.884-1.64 6.87-2.484 13.961-2.484 21.154 0 9.519 1.507 18.048 4.442 25.462-2.938 7.815-4.442 16.045-4.442 24.538 0 39.32 30.686 50 70 50s70-10.68 70-50c0-8.493-1.504-16.723-4.442-24.537 2.935-7.414 4.442-15.943 4.442-25.463 0-7.194-.843-14.284-2.484-21.154 16.837-21.7 32.431-52.787 44.206-88.255 1.74-5.242-1.098-10.901-6.34-12.642-5.241-1.738-10.901 1.099-12.642 6.34-3.733 11.243-7.85 21.985-12.259 32.051l-13.411-13.411c-3.905-3.904-10.237-3.904-14.143 0-3.905 3.905-3.905 10.237 0 14.143l18.399 18.399c-4.009 7.657-8.183 14.744-12.466 21.163-7.024-12.498-16.972-22.513-28.862-28.925v-43.709c0-16.542-13.458-30-30-30s-30 13.458-30 30v43.709c-11.898 6.418-21.848 16.438-28.872 28.943-4.379-6.543-8.551-13.65-12.487-21.15l18.431-18.431c3.905-3.905 3.905-10.237 0-14.143-3.905-3.904-10.237-3.904-14.143 0l-13.46 13.46c-18.229-41.519-29.469-89.963-29.469-122.388 0-12.666 1.814-24.507 5.399-35.215.75-2.255 1.593-4.468 2.509-6.64 15.095 16.174 35.352 28.56 58.447 35.51 14.613 4.403 26.384 16.174 31.487 31.484l2.669 8.02c1.36 4.085 5.183 6.841 9.488 6.841 4.306 0 8.128-2.756 9.488-6.841l2.668-8.017c5.104-15.313 16.875-27.084 31.485-31.486 23.098-6.951 43.357-19.338 58.453-35.514 5.617 13.311 7.906 27.581 7.906 41.858 0 1.628-.03 3.324-.089 5.041-.19 5.52 4.13 10.148 9.649 10.339.118.004.234.006.351.006 5.363 0 9.801-4.253 9.988-9.655.067-1.945.101-3.874.101-5.73 0-11.919-1.42-23.285-4.183-33.909 3.759-3.156 7.514-6.603 11.213-10.309 18.318-18.312 29.498-36.656 33.228-54.523 4.467-21.396-2.13-41.663-19.077-58.61-3.904-3.904-10.236-3.905-14.141 0l-58.442 58.433c-12.57-7.994-26.767-13.707-42.262-17.177l13.404-57.639c.583-2.508.176-5.144-1.135-7.359-.6-1.019-15.127-24.908-48.603-24.908s-48.003 23.889-48.605 24.906c-1.312 2.215-1.718 4.852-1.135 7.359l13.404 57.639c-14.683 3.288-28.674 8.689-41.439 16.658l-57.913-57.913c-3.906-3.905-10.237-3.904-14.142 0-16.947 16.946-23.544 37.213-19.079 58.609 3.729 17.866 14.905 36.21 33.218 54.523zm125.691 134.219c0-5.514 4.486-10 10-10s10 4.486 10 10v36.823c-3.294-.538-6.631-.823-10-.823-3.37 0-6.706.286-10 .823zm10 56c28.737 0 50 28.521 50 60 0 24.757-12.061 40-50 40-37.951 0-50-15.257-50-40 0-31.644 21.455-60 50-60zm-49.862 106.45c11.73 9.001 28.405 13.55 49.862 13.55s38.132-4.549 49.862-13.551c.081 1.177.138 2.358.138 3.551 0 18.007-8.503 30-50 30s-50-11.993-50-30c0-1.192.056-2.374.138-3.55zm193.427-388.044c7.262 10.112 9.591 20.906 7.115 32.765-2.88 13.795-12.49 29.171-27.798 44.475-1.456 1.458-2.917 2.863-4.38 4.224-5.882-12.364-13.93-23.253-23.918-32.49zm-143.565-50.406c15.996 0 25.262 7.873 29.201 12.288l-17.142 73.712h-24.118l-17.138-73.696c3.929-4.364 13.271-12.304 29.197-12.304zm-31.806 89.383 2.066 8.883c1.054 4.529 5.09 7.734 9.74 7.734h40c4.65 0 8.687-3.206 9.74-7.734l2.066-8.883c4.754 1.058 9.359 2.363 13.794 3.905-7.198 21.172-23.132 32.713-45.6 32.713-22.467 0-38.402-11.542-45.6-32.713 4.435-1.542 9.04-2.847 13.794-3.905zm-32.107 12.178c10.618 29.377 34.664 44.439 63.913 44.439 29.247 0 53.294-15.06 63.913-44.438 10.724 6.138 20.072 14.071 27.66 24.215-12.952 15.902-31.756 28.124-53.699 34.728-15.774 4.753-29.186 15.41-37.874 29.63-8.688-14.221-22.1-24.877-37.878-29.631-21.94-6.603-40.743-18.825-53.695-34.727 7.292-9.749 16.518-17.841 27.66-24.216zm-78.302-51.154 48.331 48.332c-9.829 8.93-18.051 19.642-24.198 32.267-1.159-1.094-2.316-2.215-3.467-3.367-15.296-15.296-24.903-30.672-27.782-44.467-2.475-11.859-.146-22.653 7.116-32.765z"/><path d="m165.325 256c0 16.542 13.458 30 30 30s30-13.458 30-30-13.458-30-30-30-30 13.458-30 30zm40 0c0 5.514-4.486 10-10 10s-10-4.486-10-10 4.486-10 10-10 10 4.486 10 10z"/><path d="m285.325 256c0 16.542 13.458 30 30 30s30-13.458 30-30-13.458-30-30-30-30 13.458-30 30zm40 0c0 5.514-4.486 10-10 10s-10-4.486-10-10 4.486-10 10-10 10 4.486 10 10z"/><circle cx="369.325" cy="256" r="10"/></g></g></svg>