<svg id="Capa_1" enable-background="new 0 0 512.013 512.013" height="512" viewBox="0 0 512.013 512.013" width="512" xmlns="http://www.w3.org/2000/svg"><g><g><path d="m114.771 23.832c-2.39-8.63-10.26-13.62-18.36-13.82-45.96-1.16-85.64 88.04-86.4 155-.6 53.37 23.8 92.61 87.57 60.74h.01c3.99-24.48 15.42-43.05 32.25-56.75v-.01z" fill="#c1b0b5"/><path d="m415.611 10.012c-8.1.16-15.97 5.19-18.36 13.82l-15.08 145.16c16.8 13.67 28.21 32.18 32.23 56.57h.01c61.16 32.54 87.37-9.94 87.6-65.55.27-66.2-35.71-151.02-86.4-150z" fill="#c1b0b5"/><path d="m382.171 168.992c23.82-9.66 39.84-29.75 39.84-62.98 0-25.6-9.5-60.64-24.76-82.18-.22.8-.4 1.63-.52 2.49l-4.91 34.38c-5.22 36.53-28.73 80.05-65.17 82.69-.65-.16-1.3-.31-1.95-.46-7.62-10.21-13.58-21.6-17.63-33.75l-11.06-33.17c0 14.94-8.19 27.96-20.32 34.83-2.54-22.35-19.68-54.83-19.68-54.83s-17.14 32.48-19.68 54.83c-12.13-6.87-20.32-19.89-20.32-34.83l-11.06 33.17c-4.05 12.15-10.01 23.54-17.63 33.75-.66.15-1.31.31-1.96.47-36.42-2.65-59.95-46.17-65.16-82.7l-4.91-34.38c-.12-.86-.3-1.69-.52-2.49-15.26 21.54-24.76 56.58-24.76 82.18 0 33.23 16.01 53.32 39.83 62.98v.01c-24.107 19.623-33.83 46.543-33.83 77.01 0 57.97 35.07 127.84 86.41 164.57h147.18c51.34-36.73 86.41-106.6 86.41-164.57 0-30.409-9.682-57.362-33.84-77.02z" fill="#ffda8f"/><path d="m336.011 442.012c0-11.16-2.29-21.79-6.41-31.43-1.317-3.052.325.6-34.67-73.2-4.18-8.82-20.02-35.37-38.92-35.37s-34.74 26.55-38.92 35.37c-35.296 74.435-33.353 70.148-34.67 73.2-4.12 9.64-6.41 20.27-6.41 31.43 0 0-18.8 60 80 60s80-60 80-60z" fill="#c1b0b5"/><path d="m356.011 256.012s.66 28.94-20 40-40-20-40-20c12.81-12.81 30.17-20 48.28-20z" fill="#c1b0b5"/><path d="m256.011 402.012c22.09 0 40-6.57 40 10s-40 30-40 30-40-13.43-40-30 17.91-10 40-10z" fill="#ffda8f"/><path d="m167.731 256.012c18.11 0 35.47 7.19 48.28 20 0 0-19.34 31.06-40 20s-20-40-20-40z" fill="#c1b0b5"/></g><g><circle cx="376.011" cy="216.012" r="10"/><circle cx="336.011" cy="196.012" r="10"/><circle cx="296.011" cy="216.012" r="10"/><circle cx="236.011" cy="236.012" r="10"/><circle cx="196.011" cy="196.012" r="10"/><circle cx="156.011" cy="216.012" r="10"/><path d="m126.011 256.012c0 5.523 4.477 10 10 10h10.808c1.749 11.461 7.251 29.597 24.473 38.816 13.367 7.155 27.346 2.93 38.99-7.089 8.479-7.295 13.988-16.072 14.219-16.442 2.458-3.947 1.871-9.068-1.417-12.357-14.786-14.786-34.443-22.929-55.351-22.929-10.981 0-20.732 0-31.72 0-5.525.001-10.002 4.478-10.002 10.001zm41.72 10c12.644 0 24.673 4 34.644 11.402-5.391 6.173-14.106 13.818-21.645 9.781-8.497-4.548-12.091-13.928-13.611-21.184h.612z"/><path d="m301.741 297.74c11.639 10.015 25.617 14.246 38.99 7.089 17.221-9.219 22.723-27.355 24.473-38.816h10.808c5.523 0 10-4.477 10-10s-4.477-10-10-10c-10.988 0-20.74 0-31.72 0-20.908 0-40.565 8.143-55.351 22.929-3.288 3.289-3.875 8.41-1.417 12.357.229.369 5.738 9.145 14.217 16.441zm42.55-31.728h.601c-1.526 7.255-5.124 16.646-13.601 21.184-7.466 3.999-16.202-3.642-21.617-9.802 9.965-7.389 21.985-11.382 34.617-11.382z"/><path d="m415.413.014c-13.197.261-24.369 8.76-27.804 21.165-.002.006-.003.011-.004.017-.007.026-.012.053-.019.08-.874 3.215-.404 1.712-5.665 38.012-4.687 32.8-24.343 68.609-52.078 73.612-5.634-8.306-10.1-17.323-13.286-26.88l-11.06-33.17c-1.551-4.653-6.254-7.496-11.088-6.708-4.841.786-8.398 4.966-8.398 9.871 0 5.59-1.569 10.973-4.389 15.602-6.022-19.781-16.207-39.207-16.767-40.269-1.731-3.28-5.135-5.333-8.844-5.333s-7.113 2.053-8.844 5.333c-.561 1.062-10.745 20.488-16.767 40.269-2.82-4.629-4.389-10.012-4.389-15.602 0-4.904-3.557-9.085-8.398-9.871-4.839-.788-9.538 2.055-11.088 6.708l-11.061 33.171c-3.186 9.56-7.655 18.58-13.292 26.889-27.743-5.011-47.394-40.821-52.072-73.621l-4.905-34.344c-1.973-14.178-13.894-24.567-28.532-24.929-14.412-.36-28.49 5.984-41.854 18.869-30.63 29.528-54.188 92.301-54.798 146.015-.406 36.079 10.077 62.649 29.517 74.818 17.234 10.788 37.59 8.694 56.567 1.867-.044 1.469-.085 2.94-.085 4.427 0 60.039 35.148 129.389 84.43 168.057-2.8 8.565-4.281 17.476-4.413 26.597-1.376 5.705-4.698 25.096 8.192 42.642 13.992 19.046 41.51 28.704 81.791 28.704s67.799-9.658 81.791-28.704c12.89-17.547 9.568-36.938 8.192-42.642-.132-9.107-1.609-18.004-4.406-26.571 14.9-11.651 28.57-26.047 40.712-42.89 3.229-4.48 2.215-10.73-2.265-13.96-4.48-3.229-10.73-2.215-13.96 2.265-9.905 13.741-20.878 25.641-32.718 35.519l-29.389-61.929c-1.993-4.206-20.27-41.088-47.957-41.088s-45.964 36.882-47.954 41.083l-29.387 61.924c-42.634-35.617-72.659-96.313-72.659-149.007 0-6.502.487-12.775 1.45-18.651 5.444-33.4 27.171-61.004 78.876-73.891.097.004.192.012.29.016.042.002.083-.002.125-.001 2.76 1.058 7.074 2.601 12.631 4.24 14.661 4.32 26.565 14.984 32.664 29.262 7.084 16.554 18.055 19.025 23.963 19.025 5.882 0 16.808-2.463 23.898-18.964 6.151-14.322 18.065-25.007 32.682-29.313 5.581-1.641 9.911-3.189 12.679-4.251.026-.001.309-.015.425-.02 50.344 12.566 80.315 41.059 80.315 92.547 0 11.279-1.424 23.233-4.232 35.53-1.229 5.384 2.138 10.746 7.522 11.976 5.359 1.225 10.74-2.115 11.976-7.522 3.142-13.756 4.734-27.208 4.734-39.983 0-1.46-.041-2.903-.084-4.345 17.75 6.429 36.884 7.906 53.142-1.813 21.082-12.604 32.781-40.945 32.942-79.802.216-52.903-20.239-110.129-49.743-139.164-14.211-13.986-30.392-21.213-46.852-20.874zm-189.285 341.65c5.667-11.958 19.083-29.652 29.883-29.652s24.216 17.694 29.886 29.658c29.253 65.234 38.689 73.147 40 96.287-5.119 4.706-16.922 14.056-29.886 14.056-7.794 0-15.163-3.381-20.915-7.097 1.852-.89 3.767-1.859 5.686-2.901 16.977-9.216 25.229-19.03 25.229-30.002 0-6.642-2.044-11.906-6.075-15.647-7.248-6.727-17.643-5.95-29.681-5.049-4.58.342-9.316.696-14.244.696s-9.664-.354-14.244-.696c-12.037-.9-22.432-1.677-29.681 5.049-4.031 3.741-6.075 9.005-6.075 15.647 0 10.972 8.252 20.786 25.229 30.002 1.919 1.042 3.833 2.01 5.686 2.901-5.754 3.717-13.122 7.097-20.915 7.097-12.963 0-24.767-9.35-29.886-14.056 1.328-23.444 11.907-33.64 40.003-96.293zm45.316 82.662c-5.89 3.216-11.895 5.687-15.437 7.042-3.489-1.334-9.369-3.752-15.225-6.931-14.136-7.674-14.771-12.381-14.771-12.425 0-.411.02-.734.045-.981 2.645-.636 9.263-.142 14.22.229 4.716.353 10.062.752 15.735.752s11.019-.399 15.735-.752c17.411-1.303 22.118.825-.302 13.066zm-55.433 47.686c17.085 0 31.664-9.474 40-16.354 8.336 6.881 22.915 16.354 40 16.354 11.533 0 21.922-4.317 30.022-9.24-.88 2.872-2.252 5.84-4.349 8.695-9.874 13.44-32.583 20.545-65.673 20.545-32.918 0-55.576-7.035-65.525-20.346-2.192-2.933-3.617-5.974-4.522-8.91 8.103 4.929 18.502 9.256 30.047 9.256zm-127.309-253.096c-15.346 7.016-34.851 12.432-48.562 3.849-13.112-8.208-20.449-29.217-20.129-57.64.545-48.141 21.928-106.053 48.679-131.843 9.368-9.031 18.619-13.505 27.474-13.273 2.484.062 5.241 1.057 7.105 3.099-13.852 22.295-23.257 55.384-23.257 82.904 0 28.967 11.513 51.681 32.75 65.366-12.127 13.173-20.194 29.094-24.06 47.538zm39.839-61.503c-18.933-9.635-28.53-26.895-28.53-51.401 0-15.308 3.666-33.487 9.486-49.529l.804 5.631c4.503 31.574 20.465 64.263 44.661 80.66-9.834 4.132-18.661 9.021-26.421 14.639zm178.404-18.863c-20.351 5.994-36.903 20.795-45.412 40.604-1.791 4.167-3.958 6.858-5.522 6.858-1.595 0-3.784-2.706-5.574-6.888-8.448-19.778-24.995-34.57-45.396-40.583-.796-.235-1.562-.467-2.297-.695 4.801-8.036 8.717-16.572 11.693-25.501l1.953-5.856c4.02 5.233 9.092 9.702 15.012 13.055 2.92 1.655 6.476 1.733 9.467.209s5.018-4.446 5.397-7.781c1.116-9.82 5.505-22.148 9.738-32.258 4.371 10.502 8.677 22.819 9.75 32.258.379 3.335 2.406 6.257 5.397 7.781 2.989 1.522 6.545 1.445 9.467-.209 5.92-3.353 10.993-7.822 15.012-13.055l1.953 5.855c2.977 8.93 6.893 17.465 11.693 25.501-.744.232-1.522.466-2.331.705zm76.534 18.864c-7.77-5.62-16.603-10.511-26.435-14.644 24.197-16.393 40.164-49.078 44.676-80.653l.805-5.633c5.82 16.042 9.486 34.221 9.486 49.529 0 24.519-9.614 41.786-28.532 51.401zm85.327 65.275c-11.213 6.704-26.505 5.411-45.492-3.819-3.872-18.43-11.94-34.335-24.054-47.495 21.239-13.686 32.751-36.4 32.751-65.363 0-27.523-9.408-60.616-23.262-82.912 1.858-2.053 4.597-3.042 7.063-3.09 11.087-.215 21.996 4.869 32.428 15.134 25.555 25.148 43.963 77.646 43.771 124.826-.129 31.119-8.587 53.979-23.205 62.719z"/><circle cx="396.011" cy="326.012" r="10"/></g></g></svg>