<svg id="Capa_1" enable-background="new 0 0 511.964 511.964" height="512" viewBox="0 0 511.964 511.964" width="512" xmlns="http://www.w3.org/2000/svg"><g><g><path d="m435.982 75.964c-23.15 0-44.47 7.87-61.42 21.08-11.91 9.29-18.58 23.82-18.58 38.92l-40 20 44.43 20h15.57c44.18 0 80-35.82 80-80v-20z" fill="#ff9256"/><path d="m296.582 25.114c-2.57 10.29-4.9 20.25-7.13 29.82l39.01 5.16.07.02c2.21-7.59 4.52-15.97 6.85-25.3 6.42-25.69-32.37-35.36-38.8-9.7z" fill="#c1b0b5"/><path d="m215.382 25.114c-6.41-25.69-45.21-15.96-38.8 9.7 2.32 9.29 4.64 17.66 6.88 25.26l.08-.02 38.97-5.13c-2.23-9.58-4.56-19.54-7.13-29.81z" fill="#c1b0b5"/><path d="m155.982 135.964c0-15.1-6.67-29.63-18.58-38.92-16.95-13.21-38.27-21.08-61.42-21.08h-20v20c0 44.18 35.82 80 80 80h15.57l44.43-20z" fill="#ff9256"/><path d="m343.632 165.184-27.65-9.22c-14.2-28.4-2.94-42.88 12.55-95.85l-.07-.02c-5.5-6.21-13.53-10.13-22.48-10.13-6.11 0-11.8 1.82-16.53 4.97-4.79 20.56-9.1 39.33-14.37 55.73-5.99 18.64-32.21 18.64-38.2 0-5.3-16.51-9.62-35.27-14.37-55.74-4.74-3.14-10.42-4.96-16.53-4.96-8.93 0-16.95 3.9-22.44 10.09l-.08.02c15.06 51.07 26.66 67.59 12.52 95.89l-27.65 9.22c-18.236 6.079-30.293 22.909-25.78 50.78h.03l67.91 161.95c-18.86 14.69-31.83 38.27-34.14 65.35 8.18 26.95 48.89 58.7 79.63 58.7s71.45-31.75 79.63-58.7c-2.31-27.08-15.28-50.66-34.14-65.35l67.91-161.76c4.576-27.901-7.423-44.861-25.75-50.97z" fill="#ffda8f"/><g fill="#fce8d0"><path d="m364.572 275.934-29.09 56.91c-16.86 29.49-14.19 64.23-.51 95.32 2.264 5.129 2.2 9.94.64 15.1-2.31-27.08-15.28-50.66-34.14-65.35-15.4-11.99-25.49-29.48-25.49-49v-28.14c0-37.78 26.44-70.42 63.4-78.26l30-6.36c14.97 1.69 26.6 14.39 26.6 29.81 0 16.57-13.43 30-30 30-.47 0-.94-.01-1.41-.03z"/><path d="m145.982 275.964c-16.57 0-30-13.43-30-30 0-15.42 11.63-28.12 26.6-29.81-.01-.06-.02-.13-.03-.19h13.27c44.24-.09 80.16 35.92 80.16 80.16v32.79c0 19.52-10.09 37.01-25.49 49-18.86 14.69-31.83 38.27-34.14 65.35-1.551-5.131-1.635-9.947.64-15.1 13.68-31.09 16.35-65.83-.51-95.32l-29.09-56.91c-.47.02-.94.03-1.41.03z"/></g></g><g><path d="m215.982 411.964c-5.522 0-10 4.477-10 10s4.478 10 10 10c5.514 0 10 4.486 10 10 0 5.523 4.478 10 10 10s10-4.477 10-10c0-16.542-13.458-30-30-30z"/><path d="m275.982 451.964c5.522 0 10-4.477 10-10 0-5.514 4.486-10 10-10 5.522 0 10-4.477 10-10s-4.478-10-10-10c-16.542 0-30 13.458-30 30 0 5.523 4.477 10 10 10z"/><path d="m134.48 185.945c-2.061 6.159-3.263 13.627-2.78 22.636-15.178 5.777-25.718 20.443-25.718 37.383 0 20.418 15.376 37.312 35.157 39.708 0 0 26.584 51.999 26.661 52.135 13.856 24.236 13.87 54.895.043 86.319-2.883 6.53-3.395 13.399-1.548 20.323 4.592 17.843 20.31 34.921 35.403 46.265 17.967 13.505 37.753 21.25 54.283 21.25s36.316-7.745 54.283-21.25c14.98-11.259 30.857-28.505 35.379-46.173 1.871-7.016 1.359-13.885-1.519-20.404-13.832-31.435-13.818-62.093.038-86.33.077-.136.151-.273.223-.412l26.438-51.723c19.781-2.397 35.157-19.291 35.157-39.708 0-16.94-10.542-31.607-25.719-37.384.48-9.009-.722-16.477-2.781-22.635 48.936-.805 88.5-40.856 88.5-89.981v-20c0-5.523-4.478-10-10-10h-20c-24.734 0-48.099 8.02-67.57 23.195-12.414 9.683-20.406 24.478-22.095 40.457l-25.149 12.575c-4.056-13.696-.258-25.336 7.578-49.323 6.4-19.591 11.145-34.837 16.338-55.63 4.75-19.007-7.393-32.612-21.842-36.228-14.466-3.621-31.597 2.663-36.362 21.681-8.287 33.19-13.826 61.599-21.318 84.914-2.099 6.531-7.862 7.039-9.579 7.039s-7.48-.507-9.578-7.037c-7.552-23.522-13.292-52.838-21.319-84.914-2.688-10.775-10.004-18.608-20.071-21.492-21.004-6.018-44.312 11.296-38.134 36.037 4.934 19.754 9.626 34.789 15.88 53.91 7.95 24.311 12.049 36.864 7.987 51.019l-25.1-12.55c-1.688-15.979-9.681-30.774-22.098-40.46-19.469-15.172-42.833-23.192-67.567-23.192h-20c-5.522 0-10 4.477-10 10v20c.001 49.123 39.564 89.174 88.499 89.98zm25.583 92.806c9.404-5.012 21.19-3.373 28.848 4.284 3.906 3.905 10.236 3.905 14.143 0 3.905-3.905 3.905-10.237 0-14.143-14.947-14.946-38.562-17.284-56.146-5.561l-3.641 2.426c-9.745-1.332-17.284-9.689-17.284-19.793 0-8.997 5.331-17.472 18.494-20h11.512c18.614 0 36.14 7.261 49.36 20.455 13.306 13.279 20.634 30.931 20.634 49.706v32.79c0 15.421-7.885 30.405-21.635 41.111-2.133 1.661-4.186 3.418-6.164 5.258-.454-16.871-4.749-32.854-12.9-47.193zm200.391-133.843c3.389-1.694 5.528-5.157 5.528-8.944 0-12.238 5.507-23.84 14.728-31.032 15.922-12.409 35.035-18.968 55.272-18.968h10v10c0 38.598-31.402 70-70 70h-11.466c-6.206-5.603-12.885-8.655-17.72-10.266l-4.752-1.585zm-54.172-117.363c2.282-9.103 10.482-7.538 12.104-7.133 1.616.405 9.567 2.884 7.294 11.979-.94 3.763-1.915 7.507-2.928 11.271-5.995-2.77-12.634-4.069-19.527-3.599.994-4.151 2-8.286 3.057-12.518zm-117.064 16.113c-1.013-3.748-1.991-7.489-2.934-11.267-2.387-9.551 7.029-13.741 13.222-11.963 3.189.914 5.209 3.238 6.176 7.113 1.054 4.213 2.063 8.374 3.057 12.523-6.893-.471-13.534.83-19.521 3.594zm9.927 121.792c2.446-.818 4.579-2.61 5.781-5.014.001-.001.001-.003.002-.005 13.013-26.046 6.926-44.661-3.159-75.5-2.106-6.44-4.44-13.585-6.886-21.6 5.585-3.725 12.672-4.42 18.902-1.782 4.354 18.753 8.536 36.474 13.577 52.174 4.083 12.709 15.317 20.92 28.62 20.92s24.537-8.211 28.62-20.92c5.016-15.61 9.196-33.37 13.574-52.169 6.191-2.635 13.311-1.973 18.952 1.811-2.651 8.761-5.146 16.411-7.393 23.292-10.088 30.876-15.645 47.885-2.697 73.779 1.218 2.435 3.411 4.224 5.781 5.014l27.651 9.221c2.817.939 8.193 3.229 12.537 8.014 5.492 6.051 7.916 14.507 7.261 25.179-22.144 4.756-23.971 4.931-29.047 6.38-5.311 1.517-8.386 7.051-6.869 12.361 1.509 5.287 7.025 8.392 12.361 6.87 4.084-1.167 4.716-1.12 32.952-7.159 9.394 1.739 16.317 9.939 16.317 19.648 0 10.468-8.089 19.069-18.342 19.916l-2.743-1.915c-17.422-12.164-40.967-10.091-55.986 4.928-3.905 3.905-3.905 10.237 0 14.142s10.235 3.906 14.143 0c7.648-7.648 19.372-9.11 28.604-3.807l-24.976 48.862c-8.151 14.338-12.446 30.321-12.9 47.193-1.978-1.84-4.032-3.598-6.166-5.26-13.749-10.704-21.634-25.688-21.634-41.109v-28.14c0-3.535.268-7.088.796-10.56.83-5.46-2.924-10.559-8.384-11.389s-10.56 2.923-11.39 8.383c-.679 4.464-1.022 9.028-1.022 13.566v28.14c0 21.634 10.696 42.37 29.346 56.889 16.773 13.065 27.658 33.52 30.104 56.344-3.841 10.414-14.066 22.719-27.184 32.578-14.36 10.794-30.161 17.238-42.267 17.238s-27.906-6.444-42.267-17.238c-13.121-9.862-23.348-22.17-27.184-32.577 2.447-22.825 13.331-43.28 30.104-56.344 18.65-14.521 29.347-35.256 29.347-56.891v-32.79c0-24.124-9.413-46.804-26.506-63.862-16.999-16.963-39.537-26.298-63.468-26.298-.062 0-4.397 0-4.397 0-.267-9.776 2.183-17.589 7.345-23.279 7.208-7.937 14.399-8.276 40.19-17.234zm-133.163-79.486h10c20.237 0 39.351 6.559 55.27 18.965 9.224 7.195 14.73 18.797 14.73 31.035 0 3.788 2.14 7.25 5.528 8.944l18.41 9.205c-3.329 1.279-12.992 3.292-22.471 11.851h-11.467c-38.598 0-70-31.402-70-70z"/><circle cx="295.982" cy="247.964" r="10"/></g></g></svg>