<svg id="Capa_1" enable-background="new 0 0 511.962 511.962" height="512" viewBox="0 0 511.962 511.962" width="512" xmlns="http://www.w3.org/2000/svg"><g><g><path d="m435.157 381.322v-.01c16.139-13.966 23.568-35.302 19.76-56.13-15.166-83.648-5.766-31.775-5.515-30.392-.137-.756-3.351-18.488-15.375-84.828h-.01c-20.22-5.45-48.54-12.82-58.13-14h-240c-9.59 1.18-37.91 8.55-58.13 14h-.01c-.267 1.471-3.774 20.807-20.89 115.22-3.805 20.814 3.609 42.153 19.76 56.13v.01c.231.2-6.186-5.191 121.22 101.93 14.58 11.52 35.19 18.71 58.05 18.71s43.47-7.19 58.05-18.71c132.783-111.649 120.411-101.228 121.22-101.93z" fill="#fce8d0"/><path d="m358.715 100.5c5.342-14.362 18.12-43.2 37.172-51.718 8.89-3.98 28.35-2.81 50.04.41-8.38-18.78-21.01-33.13-36.75-37.34-37.34-10.01-58.04 20.8-70.9 68.81-.813 3.026-1.489 6.051-2.048 9.062-21.695-8.467-48.123-13.762-80.342-13.762-29.412 0-56.468 4.658-80.278 14.104-.571-3.124-1.269-6.263-2.112-9.404-12.86-48.01-33.56-78.82-70.9-68.81-15.74 4.21-28.37 18.56-36.75 37.34 21.69-3.22 41.15-4.39 50.04-.41 19.248 8.605 32.093 37.95 37.334 52.156-37.212 21.743-63.898 57.854-75.474 109.024h.01c20.22-5.45 48.54-12.82 58.13-14 38.473-4.747 80 1.207 80 40v23.39c0 20.13-9.88 39.2-26.87 49.98-18.3 11.61-37.8 31.75-33.13 66.63.77 5.72 19.14 60 60 60 19.92 0 29.81-9.81 40-20 9.49 9.49 19.62 20 39.45 20 24.46 0 56.36-28.68 60.55-60 4.67-34.88-14.83-55.02-33.13-66.63-16.99-10.78-26.87-29.85-26.87-49.98 0-7.292 0-15.48 0-23.39 0-38.795 41.531-44.746 80-40 9.59 1.18 37.91 8.55 58.13 14h.01c-.05-.072-8.459-70.808-75.312-109.462z" fill="#ffda8f"/><path d="m445.927 49.192c-21.69-3.22-41.15-4.39-50.04-.41-19.46 8.7-32.38 38.61-37.51 52.63v.01l66.01 73.65.45-.18c13.17-10.68 24.8-23.56 28.66-37.99 7.45-27.78 3.94-61.93-7.57-87.71z" fill="#ff9256"/><path d="m115.887 48.782c-8.89-3.98-28.35-2.81-50.04.41-11.51 25.78-15.02 59.93-7.57 87.71 3.9 14.58 15.73 27.57 29.06 38.31l66.06-73.79v-.01c-5.13-14.02-18.05-43.93-37.51-52.63z" fill="#ff9256"/><path d="m443.017 259.542 5.37 29.65c-5.49 4.15-13.54 6.77-22.5 6.77-16.57 0-30-8.95-30-20s13.43-20 30-20c6.37 0 12.27 1.32 17.13 3.58z" fill="#c1b0b5"/><path d="m435.887 375.962c0 1.86-.25 3.65-.73 5.35-.68.59-1.38 1.18-2.09 1.74l-15.23 12.81c-.64.07-1.29.1-1.95.1-11.05 0-20-8.95-20-20s8.95-20 20-20 20 8.95 20 20z" fill="#c1b0b5"/><path d="m409.797 148.042c-5.48 4.81-14.15 7.92-23.91 7.92-16.57 0-30-8.95-30-20 0-9.77 10.51-17.91 24.41-19.65 11.36 9.15 21.29 19.77 29.5 31.73z" fill="#c1b0b5"/><path d="m375.887 195.962c0 14.88-12.18 36.93-30.26 49.74l-38.02-38.02c18-15.82 52.07-13.72 68.28-11.72z" fill="#f3eff0"/><g fill="#c1b0b5"><path d="m307.607 207.682 38.02 38.02c-8.77 6.22-18.92 10.26-29.74 10.26-7.01 0-13.74-.8-20-2.28v-17.72c0-12.97 4.61-22.02 11.72-28.28z"/><path d="m310.527 353.542c3.44 3.79 5.36 7.99 5.36 12.42 0 16.57-60 50-60 50s-60-33.43-60-50c0-4.43 1.92-8.63 5.36-12.42 6.88-7.55 18.5-8.29 26.29-1.67l.32.28c16.16 13.73 39.9 13.73 56.06 0l.32-.28c7.79-6.61 19.41-5.88 26.29 1.67z"/><ellipse cx="255.887" cy="95.962" rx="40" ry="20"/><circle cx="255.887" cy="175.962" r="20"/><path d="m215.887 235.962v17.72c-6.26 1.48-12.99 2.28-20 2.28-10.82 0-20.97-4.04-29.74-10.26l38.02-38.02c7.11 6.26 11.72 15.31 11.72 28.28z"/></g><path d="m204.167 207.682-38.02 38.02c-18.08-12.81-30.26-34.86-30.26-49.74 16.21-2 50.28-4.1 68.28 11.72z" fill="#f3eff0"/><path d="m131.477 116.312c13.9 1.74 24.41 9.88 24.41 19.65 0 11.05-13.43 20-30 20-9.76 0-18.43-3.11-23.91-7.92 8.21-11.96 18.14-22.58 29.5-31.73z" fill="#c1b0b5"/><path d="m95.887 355.962c11.05 0 20 8.95 20 20s-8.95 20-20 20c-.66 0-1.3-.03-1.94-.09 0 0-16.65-13.96-17.33-14.55-.48-1.7-.73-3.5-.73-5.36 0-11.05 8.95-20 20-20z" fill="#c1b0b5"/><path d="m85.887 255.962c16.57 0 30 8.95 30 20s-13.43 20-30 20c-8.96 0-17.01-2.62-22.5-6.77l5.37-29.65c4.86-2.26 10.76-3.58 17.13-3.58z" fill="#c1b0b5"/></g><g><circle cx="395.887" cy="315.962" r="10"/><circle cx="315.887" cy="135.962" r="10"/><circle cx="195.887" cy="135.962" r="10"/><circle cx="115.887" cy="315.962" r="10"/><path d="m75.483 178.277c-2.905 8.194-5.179 16.721-6.765 25.445-4.397 24.251-17.435 96.149-21.698 119.662-.752 4.112-1.133 8.344-1.133 12.578 0 20.142 8.667 39.256 23.784 52.544.693.669 121.887 102.529 121.967 102.592 17.027 13.454 39.845 20.864 64.249 20.864s47.222-7.41 64.249-20.864c.08-.063.159-.127.237-.193l7.53-6.333c4.227-3.555 4.771-9.863 1.217-14.089-3.557-4.228-9.867-4.771-14.09-1.216l-7.409 6.231c-13.311 10.465-32.157 16.465-51.734 16.465s-38.424-6-51.734-16.465l-90.038-75.731c7.15-5.488 11.772-14.115 11.772-23.804 0-16.542-13.458-30-30-30-10.121 0-19.08 5.043-24.516 12.742-3.559-6.962-5.484-14.737-5.484-22.742 0-3.031.271-6.053.809-8.995l4.193-23.121c4.685 1.384 9.751 2.115 14.999 2.115 22.43 0 40-13.178 40-30s-17.57-30-40-30c-1.526 0-3.038.08-4.539.204l5.111-28.184c17.921-4.781 31.917-8.285 41.06-10.288 7.888 30.182 37.542 58.268 68.368 58.268 3.244 0 6.459-.164 9.635-.47-1.73 14.688-9.625 27.632-21.863 35.397-28.891 18.329-41.922 44.748-37.684 76.407.691 5.134 6.449 21.622 16.63 36.467 14.446 21.065 32.87 32.199 53.281 32.199 19.055 0 30.658-7.588 39.987-16.071 9.016 8.229 20.706 16.071 39.463 16.071 30.923 0 65.824-34.016 70.461-68.673 4.238-31.653-8.793-58.072-37.684-76.401-12.238-7.765-20.133-20.708-21.863-35.397 3.176.307 6.392.47 9.635.47 31.25 0 60.62-28.624 68.368-58.268 9.142 2.002 23.138 5.506 41.06 10.288l5.111 28.184c-1.501-.124-3.013-.204-4.539-.204-22.43 0-40 13.178-40 30s17.57 30 40 30c5.248 0 10.314-.731 14.999-2.115l4.195 23.133c.535 2.929.807 5.951.807 8.982 0 8.005-1.924 15.781-5.484 22.742-5.436-7.699-14.396-12.742-24.516-12.742-16.542 0-30 13.458-30 30 0 9.69 4.622 18.316 11.772 23.804l-13.783 11.593c-4.227 3.555-4.771 9.863-1.217 14.09 3.556 4.227 9.864 4.77 14.09 1.216l45.285-38.096c15.16-13.291 23.853-32.434 23.853-52.607 0-4.233-.381-8.465-1.131-12.565-4.264-23.517-17.309-95.455-21.7-119.673-1.585-8.72-3.858-17.246-6.761-25.449 14.329-12.693 23.366-25.718 26.862-38.783 13.793-51.442-6.893-125.397-51.39-137.298-21.15-5.671-40.022-.296-54.581 15.538-11.682 12.705-20.968 32.237-28.383 59.671-22.665-7.589-47.133-11.44-72.916-11.44-25.785 0-50.255 3.852-72.917 11.44-7.415-27.437-16.7-46.968-28.382-59.671-14.56-15.834-33.431-21.207-54.575-15.54-47.087 12.596-64.022 90.215-51.397 137.296 3.496 13.067 12.532 26.092 26.867 38.79zm20.404 187.685c5.514 0 10 4.486 10 10 0 4.954-3.625 9.067-8.359 9.853l-11.637-9.788c0-.022-.004-.043-.004-.065 0-5.514 4.486-10 10-10zm329.995 10.066-11.637 9.788c-4.734-.787-8.359-4.899-8.359-9.853 0-5.514 4.486-10 10-10s10 4.486 10 10c.001.022-.003.043-.004.065zm-339.995-110.066c12.209 0 20 5.923 20 10s-7.791 10-20 10c-4.061 0-8.026-.725-11.39-2.014l3.076-16.965c2.599-.671 5.406-1.021 8.314-1.021zm61.601-61.057c16.646-1.077 30.676.552 40.655 4.659l-22.691 22.691c-8.889-8.263-15.184-18.633-17.964-27.35zm48.399 41.057c-4.426 0-8.865-.867-13.278-2.579l20.649-20.648c1.761 3.74 2.629 8.126 2.629 13.228v9.369c-3.271.414-6.612.63-10 .63zm37.357 144.141c-23.678-16.223-26.958-23.317-27.35-24.429.096-1.681 1.021-3.499 2.744-5.396 3.254-3.57 8.678-3.925 12.375-.825 0 0 .329.288.368.32 19.994 16.987 49.016 16.987 69.01 0 .039-.033.364-.317.364-.317 3.706-3.101 9.13-2.742 12.366.808 1.735 1.912 2.661 3.73 2.757 5.411-.391 1.11-3.661 8.183-27.237 24.352-8.822 6.051-17.542 11.333-22.756 14.396-5.184-3.047-13.839-8.289-22.641-14.32zm82.643-144.141c-3.388 0-6.729-.217-10-.631v-9.369c0-5.103.868-9.489 2.629-13.228l20.649 20.649c-4.413 1.712-8.852 2.579-13.278 2.579zm30.435-13.707-22.691-22.69c9.98-4.107 24.01-5.737 40.654-4.659-2.78 8.715-9.075 19.085-17.963 27.349zm90.955 51.693c-3.365 1.29-7.329 2.014-11.39 2.014-12.209 0-20-5.923-20-10s7.791-10 20-10c2.907 0 5.715.35 8.313 1.02zm1.602-225.651c9.16 23.679 11.156 52.908 4.958 76.021-2.101 7.855-7.462 16.064-15.975 24.495-13.241-25.592-32.865-46.222-57.102-61.603 8.513-20.36 19.174-34.813 29.212-39.301 2.573-1.151 11.393-3.284 38.907.388zm-44.038 86.474c-2.755.771-5.803 1.191-8.954 1.191-12.209 0-20-5.923-20-10 0-3.182 4.535-7.113 11.623-8.951 6.346 5.45 12.139 11.393 17.331 17.76zm-22.933-113.503c9.588-10.429 20.606-13.531 34.685-9.755 7.482 2.001 14.548 7.32 20.695 15.394-21.726-1.812-30.585.553-35.482 2.746-18.311 8.187-31.064 30.372-38.596 47.743-1.859-.912-3.74-1.795-5.641-2.651 4.369-17.272 12.344-40.431 24.339-53.477zm-139.834 59.495c6.104-3.051 14.782-4.801 23.813-4.801 9.03 0 17.709 1.75 23.813 4.801 5.112 2.556 6.188 4.853 6.188 5.199s-1.075 2.644-6.188 5.199c-6.104 3.051-14.782 4.801-23.813 4.801-9.03 0-17.709-1.75-23.813-4.801-5.112-2.556-6.188-4.853-6.188-5.199s1.076-2.643 6.188-5.199zm-25.681.751c-.329 1.446-.506 2.929-.506 4.448 0 17.103 21.495 30 50 30s50-12.897 50-30c0-1.519-.177-3.002-.506-4.448 18.736 4.401 37.06 11.568 53.787 22.029-8.219 5.517-13.281 13.551-13.281 22.419 0 16.822 17.57 30 40 30 7.441 0 14.591-1.496 20.748-4.244 3.228 5.499 6.078 11.231 8.495 17.134 2.272 5.565 4.197 11.344 5.761 17.271-22.487-5.887-37.188-9.276-43.779-10.087-45.434-5.607-91.225 4.506-91.225 49.925v23.39c0 24.063 11.78 45.904 31.513 58.424 22.444 14.239 31.792 32.838 28.575 56.86-3.536 26.437-31.525 51.326-50.638 51.326-10.105 0-16.872-3.345-22.858-8.163 5.467-3.338 12.263-7.649 19.115-12.413 30.218-21.009 34.292-31.719 34.292-39.424 0-6.789-2.751-13.407-7.969-19.155-10.555-11.583-28.192-12.708-40.151-2.56-.041.034-.08.069-.12.104l-.258.226c-12.471 10.55-30.533 10.55-43.004 0 0 0-.334-.292-.372-.325-11.954-10.159-29.594-9.038-40.17 2.569-5.205 5.734-7.956 12.353-7.956 19.141 0 7.706 4.074 18.416 34.292 39.424 6.84 4.755 13.624 9.06 19.086 12.395-6.156 4.926-12.972 8.181-23.378 8.181-32.229 0-48.797-44.813-50.104-51.442-3.172-23.965 6.182-42.527 28.591-56.744 19.732-12.52 31.513-34.361 31.513-58.424v-23.39c0-45.603-46.127-55.489-91.222-49.925-6.593.812-21.294 4.2-43.781 10.087 1.553-5.883 3.461-11.615 5.711-17.132.01-.024.021-.048.03-.072.006-.015.013-.029.018-.043 2.426-5.926 5.275-11.665 8.497-17.158 6.157 2.748 13.306 4.243 20.747 4.243 22.43 0 40-13.178 40-30 0-8.869-5.062-16.902-13.281-22.419 16.405-10.258 34.65-17.532 53.788-22.028zm-89.461 53.257c5.191-6.365 10.983-12.307 17.332-17.76 7.088 1.838 11.623 5.769 11.623 8.951 0 4.077-7.791 10-20 10-3.152 0-6.2-.42-8.955-1.191zm-11.746-123.26c14.07-3.773 25.09-.671 34.679 9.757 12.02 13.072 19.98 36.263 24.339 53.477-1.901.857-3.782 1.739-5.641 2.65-7.531-17.372-20.284-39.556-38.591-47.741-4.901-2.194-13.763-4.559-35.487-2.748 6.148-8.073 13.215-13.393 20.701-15.395zm-32.291 36.786c27.516-3.672 36.334-1.539 38.911-.385 10.034 4.485 20.694 18.938 29.207 39.298-24.026 15.248-43.765 35.811-57.098 61.605-8.516-8.433-13.878-16.643-15.98-24.502-6.196-23.108-4.201-52.336 4.96-76.016z"/><path d="m255.887 205.962c16.542 0 30-13.458 30-30s-13.458-30-30-30-30 13.458-30 30 13.458 30 30 30zm0-40c5.514 0 10 4.486 10 10s-4.486 10-10 10-10-4.486-10-10 4.486-10 10-10z"/><circle cx="355.887" cy="447.962" r="10"/></g></g></svg>