<svg id="Capa_1" enable-background="new 0 0 512.022 512.022" height="512" viewBox="0 0 512.022 512.022" width="512" xmlns="http://www.w3.org/2000/svg"><g><g><path d="m196.049 456.652c-6.13 16.07-10.95 25.9-10.95 25.9s-106.99-73.8-129.86-159.16c-4.94-18.41-6.31-43.93-5.44-63.22.69-15.21-4.43-29.74-13.6-41.89-16.44-21.77-26.19-48.88-26.19-78.26 0-68.98 55.6-118.3 113.25-128.07 22.37-3.79 43.94-1.86 63.45 4.57 45.07 14.84 93.53 14.84 138.6 0 19.49-6.42 41.03-8.36 63.38-4.58 57.27 9.68 112.81 58.9 113.32 127.08.23 30.08-9.77 57.82-26.71 79.95-9.35 12.22-14.58 26.89-13.9 42.26.85 19.22-.54 38.66-5.45 57-22.87 85.35-129.86 165.16-129.86 165.16s-4.81-9.8-10.92-25.83c-23.71 26.6-59.16 44.46-59.16 44.46s-36.26-18.26-59.96-45.37z" fill="#ff9256"/><path d="m420.739 97.482c-16.6-8.49-47.45 6.24-70.53 20.16l45.79 58.76h.01c43.63-12.1 53.47-64.23 24.73-78.92z" fill="#ffda8f"/><path d="m93.719 97.482c-28.2 14.42-19.26 64.86 22.29 78.19l47.6-58.41c-23-13.8-53.45-28.19-69.89-19.78z" fill="#ffda8f"/><path d="m157.669 319.112c-3.912-15.414-.688-30.353 7.47-41.91-49.234-85.252-39.075-67.662-41.13-71.22-8.068-13.986-10.292-30.822-5.49-47.6 8.937-31.279 42.391-48.872 73.64-40.16l63.85 17.8 63.85-17.8c31.39-8.758 64.721 8.945 73.64 40.16 4.843 16.966 2.481 33.797-5.49 47.6-4.254 7.367 8.104-14.032-41.13 71.22 8.154 11.551 11.383 26.488 7.47 41.91-9.56 37.662-57.289 49.222-84.05 21.9-3.95-4.03-9.12-6.05-14.29-6.05s-10.34 2.02-14.29 6.05c-27.077 27.645-74.618 15.256-84.05-21.9z" fill="#fce8d0"/><path d="m349.299 169.382c4.24 4.76 6.71 10.48 6.71 16.64 0 16.57-17.91 30-40 30-2.67 0-5.28-.2-7.81-.57l-12.19-19.43z" fill="#c1b0b5"/><path d="m314.969 355.232c.68 3.96 1.04 7.6 1.04 10.79 0 27.61-26.86 30-60 30s-60-2.39-60-30c0-3.19.36-6.83 1.04-10.79 17.49 3.04 33.7-3.02 44.67-14.22 3.95-4.03 9.12-6.05 14.29-6.05s10.34 2.02 14.29 6.05c10.97 11.2 27.18 17.26 44.67 14.22z" fill="#ffda8f"/><g fill="#c1b0b5"><path d="m256.009 276.022c22.09 0 40-11.05 40 0s-17.91 40-40 40-40-28.95-40-40 17.91 0 40 0z"/><path d="m216.009 196.022-12.19 19.43c-2.53.37-5.14.57-7.81.57-22.09 0-40-13.43-40-30 0-6.16 2.47-11.88 6.71-16.64z"/></g></g><g><path d="m446.78 131.706c1.91-18.851-6.324-35.377-21.487-43.127-16.331-8.352-41.511-2.298-76.9 18.509-10.584-1.829-21.068-1.33-31.218 1.502l-61.165 17.051-61.165-17.051c-9.529-2.656-19.367-3.258-29.301-1.802-35.124-20.559-60.133-26.518-76.377-18.208-15.033 7.687-23.104 23.408-21.588 42.054 1.848 22.732 16.798 42.525 38.751 52.063.953 9.957 4.019 19.62 9.02 28.288l38.134 66.033c-7.451 13.458-9.417 29.149-5.507 44.556 4.851 19.11 19.598 34.877 38.136 41.189-.063 1.121-.104 2.215-.104 3.26 0 36.742 35.081 40 70 40 35.44 0 70-3.295 70-40 0-1.046-.041-2.141-.104-3.262 18.547-6.321 33.287-22.083 38.137-41.189 3.91-15.407 1.943-31.098-5.508-44.556l38.134-66.033c4.826-8.357 7.85-17.664 8.905-27.245 25.767-10.023 39.247-32.697 41.207-52.032zm-337.875 23.925c-.491 1.715-.916 3.438-1.283 5.168-12.676-8.096-19.223-20.885-20.109-31.787-.402-4.943-.158-17.044 10.761-22.627 2.94-1.505 13.727-4.471 41.67 9.281-14.881 8.779-26.217 23.086-31.039 39.965zm147.104 230.391c-38.785 0-50-4.486-50-20 0-.011.001-.024.001-.035 16.051-.044 31.528-6.415 42.851-17.976 1.928-1.967 4.466-3.05 7.148-3.05s5.221 1.083 7.146 3.048c11.336 11.573 26.83 17.945 42.853 17.986 0 .008.001.018.001.026 0 15.515-11.215 20.001-50 20.001zm-20.626-92.288c-3.505-4.173-5.944-8.321-7.454-11.615 8.366 1.728 17.215 3.903 28.08 3.903 10.482 0 18.953-2.015 28.068-3.9-4.347 9.216-15.508 23.9-28.068 23.9-6.55 0-14.067-4.479-20.626-12.288zm143.966-92.753-32.789 56.777-20.437-32.559c22.738-3.752 39.886-19.892 39.886-39.177 0-8.448-3.196-16.502-9.243-23.291-3.005-3.375-7.898-4.314-11.939-2.294l-53.29 26.64c-5.271 2.635-7.141 9.252-3.999 14.259 13.774 21.971 38.569 61.469 52.38 83.461 5.886 9.386 7.568 20.699 4.738 31.854-3.429 13.51-14.352 24.488-27.848 27.974-13.931 3.625-28.758.219-39.367-10.612-3.277-3.344-7.177-5.822-11.432-7.333v-2.089c9.237-2.615 18.197-8.773 25.941-17.993 8.54-10.168 14.059-22.17 14.059-30.575 0-6.161-2.808-9.726-5.164-11.631-6.171-4.992-14.219-3.272-23.539-1.28-6.385 1.365-13.623 2.911-21.297 2.911s-14.912-1.546-21.297-2.911c-9.32-1.992-17.369-3.712-23.539 1.28-2.356 1.906-5.164 5.47-5.164 11.631 0 14.785 17.334 41.981 40 48.546v2.112c-4.255 1.511-8.155 3.99-11.434 7.335-10.321 10.537-25.034 14.34-39.385 10.605-13.476-3.48-24.399-14.458-27.828-27.967-2.831-11.156-1.149-22.468 4.737-31.854.075-.107 23.605-37.605 52.381-83.462 3.133-4.993 1.287-11.616-3.999-14.259l-53.29-26.64c-4.042-2.02-8.935-1.08-11.939 2.294-6.047 6.789-9.243 14.843-9.243 23.291 0 19.285 17.147 35.424 39.885 39.177l-20.438 32.556-32.785-56.77c-6.681-11.581-8.609-25.625-4.537-39.855 7.486-26.2 35.604-40.448 61.339-33.274l63.85 17.8c1.757.489 3.614.489 5.371 0l63.852-17.8c25.969-7.248 53.908 7.274 61.337 33.272 4.095 14.341 2.073 28.409-4.534 39.851zm-65.289 4.997-3.725-5.938 35.177-17.585c.331 1.168.497 2.359.497 3.567 0 12.937-17.42 20.61-31.949 19.956zm-148.051-19.956c0-1.208.166-2.399.497-3.567l35.177 17.585-3.725 5.938c-16.246.731-31.949-8.15-31.949-19.956zm260.872-56.333c-1.158 11.423-8.442 24.619-22.23 32.417-.419-2.163-.923-4.323-1.537-6.472-4.704-16.463-15.606-30.472-29.96-39.304 28.945-14.521 40.033-11.478 43.033-9.944 7.773 3.973 11.77 12.684 10.694 23.303z"/><circle cx="413.009" cy="397.022" r="10"/><path d="m322.181 7.023c-43.291 14.254-89.054 14.254-132.341.001-21.935-7.229-44.896-8.888-68.251-4.932-64.519 10.935-121.58 65.856-121.58 137.93 0 30.703 9.755 59.848 28.208 84.284 8.145 10.792 12.154 23.038 11.592 35.416-.835 18.522.242 45.655 5.771 66.259 23.552 87.904 129.349 161.705 133.841 164.803 4.987 3.44 11.944 1.701 14.657-3.829.135-.275 2.298-4.71 5.525-12.33 23.318 21.787 50.577 35.658 51.909 36.329 1.415.712 2.956 1.068 4.498 1.068s3.084-.356 4.5-1.069c1.301-.656 27.923-14.206 51.056-35.538 3.239 7.653 5.413 12.108 5.548 12.383 2.766 5.636 9.958 7.337 14.957 3.61 1.155-.862 28.643-21.47 59.045-53.177 3.823-3.986 3.689-10.316-.297-14.139-3.987-3.823-10.317-3.689-14.139.297-18.518 19.312-36.195 34.558-46.717 43.178-1.005-2.374-2.121-5.081-3.312-8.079 9.542-11.783 15.622-23.672 18.086-35.411 1.135-5.405-2.327-10.707-7.732-11.841-5.4-1.131-10.707 2.327-11.841 7.732-6.075 28.935-43.437 56.288-69.159 70.694-25.686-14.359-63.085-41.79-69.147-70.693-1.134-5.405-6.434-8.866-11.84-7.734-5.405 1.134-8.868 6.435-7.734 11.84 2.394 11.412 8.211 22.976 17.309 34.442-1.281 3.224-2.476 6.117-3.54 8.621-26.385-20.192-98.458-80.282-116.156-146.338-4.943-18.422-5.841-43.931-5.108-60.175.775-17.086-4.622-33.811-15.61-48.37-15.812-20.938-24.17-45.916-24.17-72.233 0-65.231 54.058-109.591 104.92-118.21 20.11-3.407 39.841-1.991 58.652 4.209 47.382 15.601 97.473 15.601 144.855 0 18.802-6.193 38.513-7.612 58.585-4.218 50.534 8.542 104.502 52.553 104.987 117.296.206 26.94-8.318 52.458-24.652 73.797-11.198 14.635-16.713 31.502-15.948 48.778.878 19.846-.845 38.004-5.119 53.97-3.355 12.522-8.92 25.784-16.54 39.418-2.694 4.821-.971 10.914 3.85 13.608 4.823 2.696 10.915.97 13.608-3.85 8.427-15.077 14.617-29.881 18.401-44.001 4.804-17.943 6.749-38.14 5.781-60.028-.554-12.525 3.544-24.884 11.85-35.74 19.062-24.901 29.009-54.676 28.769-86.103-.53-70.834-57.105-125.955-121.652-136.865-23.312-3.944-46.25-2.281-68.175 4.94z"/></g></g></svg>