<svg id="Capa_1" enable-background="new 0 0 512 512" height="512" viewBox="0 0 512 512" width="512" xmlns="http://www.w3.org/2000/svg"><g><g><path d="m418.553 94.73c23.44-23.43 23.44-61.3 0-84.73l-68.28 68.16-1.58.92c-26.14-19.24-58.1-29.08-92.62-29.08s-66.48 9.84-92.62 29.08l-1.7-.83-68.369-68.25c-23.43 23.43-23.43 61.3 0 84.73 11 11.01 26.83 14.26 40.68 9.75l2.29.58c-25.061 31.04-40.281 74.94-40.281 130.94 0 38.81 7.31 81.27 20.14 112.93-16.13 18.18-24.1 43.76-18.19 70.99 6.41 29.55 30.37 53.6 59.9 60.08 5.82 1.28 11.56 1.93 17.17 1.99 18.18 14.26 47.68 20.01 80.98 20.01s62.8-5.75 80.98-20.01c5.61-.06 11.35-.71 17.17-1.99 29.53-6.48 53.49-30.53 59.9-60.08 5.91-27.23-2.06-52.81-18.19-70.99 12.83-31.66 20.14-74.12 20.14-112.93 0-56-15.22-99.9-40.28-130.94l2.36-.49c13.79 4.37 29.471 1.09 40.4-9.84z" fill="#c1b0b5"/><g fill="#f3eff0"><circle cx="336.073" cy="196" r="20"/><path d="m296.073 342c0 51.95-4.22 59.24-22 60h-36c-17.78-.76-22-8.05-22-60 0-66.27 40-192 40-192s40 125.73 40 192z"/><circle cx="176.073" cy="196" r="20"/></g></g><g><path d="m206.073 196c0-16.542-13.458-30-30-30s-30 13.458-30 30 13.458 30 30 30 30-13.458 30-30zm-40 0c0-5.514 4.486-10 10-10s10 4.486 10 10-4.486 10-10 10-10-4.485-10-10z"/><path d="m336.073 166c-16.542 0-30 13.458-30 30s13.458 30 30 30 30-13.458 30-30-13.458-30-30-30zm0 40c-5.514 0-10-4.486-10-10s4.486-10 10-10 10 4.486 10 10-4.486 10-10 10z"/><path d="m446.133 52.366c0-18.66-7.283-36.217-20.51-49.438-3.903-3.901-10.23-3.904-14.134-.005l-63.566 63.455c-26.315-17.279-57.886-26.378-91.85-26.378-34.019 0-65.638 9.129-91.976 26.461l-63.65-63.538c-3.907-3.9-10.234-3.897-14.136.006-27.259 27.259-27.259 71.613-.003 98.869 8.261 8.269 18.859 13.203 29.998 14.39-19.838 32.331-30.233 73.283-30.233 119.812 0 38.499 6.945 79.489 18.701 111.083-16.33 21.128-22.352 48.098-16.523 74.957 7.208 33.228 34.346 60.446 67.524 67.727 5.285 1.162 10.613 1.867 15.875 2.118 18.8 13.347 47.17 20.115 84.423 20.115 37.254 0 65.624-6.768 84.423-20.115 5.268-.251 10.592-.956 15.871-2.117 33.183-7.282 60.32-34.5 67.528-67.727 5.831-26.867-.197-53.845-16.522-74.959 11.756-31.594 18.7-72.584 18.7-111.082 0-46.549-10.403-87.515-30.256-119.851 11.074-1.227 21.607-6.147 29.806-14.346 13.227-13.221 20.51-30.778 20.51-49.437zm-345.679 35.294c-17.043-17.043-19.161-43.445-6.354-62.814l53.908 53.812c-5.687 4.928-11.052 10.282-16.025 16.042-.339.073-.679.162-1.016.272-10.799 3.516-22.49.716-30.513-7.312zm155.619 404.34c-18.906 0-35.288-1.911-48.676-5.613 3.643-1.349 7.199-2.929 10.634-4.743 24.178-12.761 51.91-12.759 76.082-.001 3.439 1.816 6.998 3.394 10.643 4.742-13.389 3.704-29.774 5.615-48.683 5.615zm150-256c0 32.188-5.106 66.088-13.924 93.88-12.69-16.555-20.204-39.449-23.132-57.012l-3.08-18.51c-.907-5.448-6.055-9.135-11.506-8.223-5.448.906-9.129 6.058-8.223 11.506l3.08 18.513c5.102 30.595 18.442 58.916 35.681 75.754 17.427 17.042 24.698 41.392 19.381 65.892-5.581 25.726-26.586 46.796-52.274 52.434-17.389 3.823-34.35 1.26-48.625-6.277-29.665-15.657-65.087-15.658-94.758.001-14.172 7.484-31.122 10.124-48.627 6.275-25.685-5.636-46.689-26.707-52.271-52.434-5.293-24.389 1.881-48.772 19.375-65.885 17.244-16.843 30.585-45.164 35.687-75.762l3.08-18.51c.906-5.448-2.774-10.6-8.223-11.506-5.453-.912-10.6 2.776-11.506 8.223l-3.08 18.507c-2.928 17.563-10.44 40.456-23.132 57.014-8.817-27.792-13.924-61.692-13.924-93.879 0-115.982 67.181-176 150-176 84.639-.001 150.001 62.082 150.001 175.999zm-24.899-140.963c-.308-.098-.617-.177-.926-.243-5.03-5.835-10.461-11.253-16.221-16.234l53.822-53.727c5.391 8.104 8.284 17.6 8.284 27.532 0 13.315-5.202 25.849-14.65 35.293-7.954 7.955-19.568 10.783-30.309 7.379z"/><path d="m176.073 412c-5.522 0-10 4.477-10 10s4.478 10 10 10c5.514 0 10 4.486 10 10 0 5.523 4.478 10 10 10s10-4.477 10-10c0-16.542-13.458-30-30-30z"/><path d="m336.073 412c-16.542 0-30 13.458-30 30 0 5.523 4.478 10 10 10s10-4.477 10-10c0-5.514 4.486-10 10-10 5.522 0 10-4.477 10-10s-4.477-10-10-10z"/><path d="m256.073 120c26.257 0 46.597-22.376 47.449-23.329 3.677-4.105 3.328-10.399-.766-14.088-4.094-3.69-10.411-3.359-14.113.723-.151.168-15.334 16.694-32.57 16.694-17.215 0-32.384-16.488-32.57-16.693-3.688-4.095-9.996-4.435-14.101-.757-4.114 3.685-4.463 10.006-.778 14.121.853.953 21.193 23.329 47.449 23.329z"/><circle cx="284.073" cy="256" r="10"/><path d="m302.356 298.758c-.807-5.463-5.892-9.237-11.352-8.435-5.464.805-9.24 5.888-8.436 11.352 2.326 15.775 3.505 29.342 3.505 40.326 0 17.9-.434 37.311-3.65 45.566-1.161 2.981-1.603 4.115-8.57 4.434h-35.559c-6.968-.319-7.409-1.453-8.57-4.434-3.217-8.255-3.65-27.666-3.65-45.566 0-43.741 18.311-115.478 30.009-156.842 2.463 8.698 5.216 18.729 8.021 29.541 1.388 5.345 6.847 8.557 12.191 7.167 5.346-1.387 8.555-6.845 7.168-12.191-9.144-35.235-17.773-62.437-17.859-62.707-1.32-4.15-5.175-6.968-9.529-6.968s-8.209 2.818-9.529 6.968c-1.652 5.194-40.471 127.98-40.471 195.032 0 29.128 1.359 43.445 5.015 52.827 5.63 14.448 17.15 16.762 26.559 17.164.143.006.284.009.427.009h36c14.148 0 22.776-6.371 26.985-17.173 3.655-9.382 5.015-23.699 5.015-52.827-.003-11.957-1.253-26.506-3.72-43.243z"/></g></g></svg>